<svg width="300" height="400" viewBox="0 0 300 400" fill="none" xmlns="http://www.w3.org/2000/svg">
<path fill-rule="evenodd" clip-rule="evenodd" d="M135 127.803V132.163C135 138.86 140.429 144.29 147.127 144.29C153.824 144.29 159.253 138.86 159.253 132.163V127.803H135Z" fill="#393939"/>
<mask id="mask0_7444_45" style="mask-type:luminance" maskUnits="userSpaceOnUse" x="135" y="127" width="25" height="18">
<path fill-rule="evenodd" clip-rule="evenodd" d="M135.02 127C135.007 127.233 135 127.467 135 127.703V132.163C135 138.861 140.429 144.29 147.127 144.29C153.824 144.29 159.253 138.861 159.253 132.163V127.703C159.253 127.467 159.246 127.233 159.233 127H135.02Z" fill="white"/>
</mask>
<g mask="url(#mask0_7444_45)">
<path d="M147.127 148.179C151.166 148.179 154.44 146.396 154.44 144.197C154.44 141.997 151.166 140.214 147.127 140.214C143.088 140.214 139.814 141.997 139.814 144.197C139.814 146.396 143.088 148.179 147.127 148.179Z" fill="#FF6C6C"/>
<rect x="135" y="127.803" width="24.2533" height="5.00163" fill="white"/>
</g>
</svg>
